<svg xmlns="http://www.w3.org/2000/svg" width="32" height="32" viewBox="0 0 32 32" fill="none">
  <!-- Background circle -->
  <circle cx="16" cy="16" r="15" fill="#f8fafc" stroke="#cbd5e0" stroke-width="1"/>
  
  <!-- Message bubble -->
  <path d="M8 10.67C8 9.2 9.2 8 10.67 8H18.67C20.14 8 21.33 9.2 21.33 10.67V16C21.33 17.47 20.14 18.67 18.67 18.67H13.33L10.67 21.33V10.67Z" fill="#667eea" stroke="#5a67d8" stroke-width="1"/>
  
  <!-- Anonymous mask -->
  <path d="M9.33 12C9.33 11.26 9.93 10.67 10.67 10.67H18.67C19.4 10.67 20 11.26 20 12V14.67C20 15.4 19.4 16 18.67 16H10.67C9.93 16 9.33 15.4 9.33 14.67V12Z" fill="#2d3748" opacity="0.9"/>
  
  <!-- Eye slits -->
  <rect x="11.33" y="12.67" width="1.33" height="0.67" rx="0.33" fill="#ffffff"/>
  <rect x="16.67" y="12.67" width="1.33" height="0.67" rx="0.33" fill="#ffffff"/>
  
  <!-- Silent symbol -->
  <path d="M13.33 17.33L18.67 13.33" stroke="#ffffff" stroke-width="1.33" stroke-linecap="round" opacity="0.7"/>
</svg>
